<?xml version="1.0" standalone="no"?>
<!DOCTYPE svg PUBLIC "-//W3C//DTD SVG 20010904//EN"
 "http://www.w3.org/TR/2001/REC-SVG-20010904/DTD/svg10.dtd">
<svg version="1.0" xmlns="http://www.w3.org/2000/svg"
 width="16.000000pt" height="16.000000pt" viewBox="0 0 16.000000 16.000000"
 preserveAspectRatio="xMidYMid meet">

<g transform="translate(0.000000,16.000000) scale(0.100000,-0.100000)"
fill="#000000" stroke="none">
<path d="M29 93 c-5 -16 -11 -33 -13 -38 -2 -6 13 -10 35 -10 22 0 39 0 39 1
0 1 -7 18 -15 38 -18 43 -32 46 -46 9z"/>
<path d="M85 110 c3 -5 13 -10 22 -10 12 0 13 -3 4 -14 -13 -15 -5 -46 13 -46
9 0 12 29 7 70 0 6 -13 10 -27 10 -14 0 -23 -4 -19 -10z"/>
</g>
</svg>
